<svg xmlns="http://www.w3.org/2000/svg" viewBox="0 0 100 100">
  <circle cx="50" cy="50" r="50" fill="#FFE600"/>
  <g fill="#2D3277">
    <!-- Top arc (hair/brow) -->
    <path d="M50 18c-10 0-18.5 5-23 12 5-5.5 13-9 23-9s18 3.5 23 9c-4.5-7-13-12-23-12z"/>
    <!-- Face outline arc -->
    <path d="M27 30c0 12 10 22 23 22s23-10 23-22" fill="none" stroke="#2D3277" stroke-width="5" stroke-linecap="round"/>
    <!-- Left eye -->
    <ellipse cx="39" cy="37" rx="4.5" ry="5.5"/>
    <!-- Right eye -->
    <ellipse cx="61" cy="37" rx="4.5" ry="5.5"/>
  </g>
  <!-- Hands/handshake below -->
  <g fill="none" stroke="#2D3277" stroke-width="4" stroke-linecap="round">
    <path d="M28 68c0 0 8-6 22-6s22 6 22 6"/>
    <path d="M33 76c0 0 6-4 17-4s17 4 17 4"/>
  </g>
</svg>
